<svg width="101" height="101" viewBox="0 0 101 101" fill="none" xmlns="http://www.w3.org/2000/svg">
<path d="M50.5 0C77.0125 0 94.6875 6.94375 94.6875 15.7812V18.9375V25.25C98.1791 25.25 101 28.0709 101 31.5625V44.1875C101 47.6791 98.1791 50.5 94.6875 50.5V82.0625C94.6875 85.5541 91.8666 88.375 88.375 88.375V94.6875C88.375 98.1791 85.5541 101 82.0625 101H75.75C72.2584 101 69.4375 98.1791 69.4375 94.6875V88.375H31.5625V94.6875C31.5625 98.1791 28.7416 101 25.25 101H18.9375C15.4459 101 12.625 98.1791 12.625 94.6875V88.375C9.1334 88.375 6.3125 85.5541 6.3125 82.0625V50.5C2.8209 50.5 0 47.6791 0 44.1875V31.5625C0 28.0709 2.8209 25.25 6.3125 25.25V18.9375V15.7812C6.3125 6.94375 23.9875 0 50.5 0ZM18.9375 31.5625V50.5C18.9375 53.9916 21.7584 56.8125 25.25 56.8125H47.3438V25.25H25.25C21.7584 25.25 18.9375 28.0709 18.9375 31.5625ZM53.6562 56.8125H75.75C79.2416 56.8125 82.0625 53.9916 82.0625 50.5V31.5625C82.0625 28.0709 79.2416 25.25 75.75 25.25H53.6562V56.8125ZM22.0938 78.9062C23.7679 78.9062 25.3735 78.2412 26.5574 77.0574C27.7412 75.8735 28.4062 74.2679 28.4062 72.5938C28.4062 70.9196 27.7412 69.314 26.5574 68.1301C25.3735 66.9463 23.7679 66.2812 22.0938 66.2812C20.4196 66.2812 18.814 66.9463 17.6301 68.1301C16.4463 69.314 15.7812 70.9196 15.7812 72.5938C15.7812 74.2679 16.4463 75.8735 17.6301 77.0574C18.814 78.2412 20.4196 78.9062 22.0938 78.9062ZM78.9062 78.9062C80.5804 78.9062 82.186 78.2412 83.3699 77.0574C84.5537 75.8735 85.2188 74.2679 85.2188 72.5938C85.2188 70.9196 84.5537 69.314 83.3699 68.1301C82.186 66.9463 80.5804 66.2812 78.9062 66.2812C77.2321 66.2812 75.6265 66.9463 74.4426 68.1301C73.2588 69.314 72.5938 70.9196 72.5938 72.5938C72.5938 74.2679 73.2588 75.8735 74.4426 77.0574C75.6265 78.2412 77.2321 78.9062 78.9062 78.9062ZM69.4375 15.7812C69.4375 14.0453 68.0172 12.625 66.2812 12.625H34.7188C32.9828 12.625 31.5625 14.0453 31.5625 15.7812C31.5625 17.5172 32.9828 18.9375 34.7188 18.9375H66.2812C68.0172 18.9375 69.4375 17.5172 69.4375 15.7812Z" fill="#23242B"/>
</svg>
