<svg width="25" height="25" viewBox="0 0 25 25" fill="none" xmlns="http://www.w3.org/2000/svg">
<path d="M12.3306 2.92114C11.0173 2.92114 9.71699 3.1798 8.50373 3.68235C7.29048 4.18489 6.18808 4.92149 5.2595 5.85007C3.38413 7.72544 2.33057 10.269 2.33057 12.9211C2.33057 15.5733 3.38413 18.1168 5.2595 19.9922C6.18808 20.9208 7.29048 21.6574 8.50373 22.1599C9.71699 22.6625 11.0173 22.9211 12.3306 22.9211C14.9827 22.9211 17.5263 21.8676 19.4016 19.9922C21.277 18.1168 22.3306 15.5733 22.3306 12.9211C22.3306 11.6079 22.0719 10.3076 21.5694 9.09431C21.0668 7.88105 20.3302 6.77866 19.4016 5.85007C18.473 4.92149 17.3707 4.18489 16.1574 3.68235C14.9441 3.1798 13.6438 2.92114 12.3306 2.92114Z" fill="#CF142B"/>
</svg>
