<svg width="32" height="32" viewBox="0 0 32 32" fill="none" xmlns="http://www.w3.org/2000/svg">
<path d="M16.0002 5.33325C17.4147 5.33325 18.7712 5.89515 19.7714 6.89535C20.7716 7.89554 21.3335 9.2521 21.3335 10.6666C21.3335 12.0811 20.7716 13.4376 19.7714 14.4378C18.7712 15.438 17.4147 15.9999 16.0002 15.9999C14.5857 15.9999 13.2291 15.438 12.2289 14.4378C11.2287 13.4376 10.6668 12.0811 10.6668 10.6666C10.6668 9.2521 11.2287 7.89554 12.2289 6.89535C13.2291 5.89515 14.5857 5.33325 16.0002 5.33325ZM16.0002 18.6666C21.8935 18.6666 26.6668 21.0533 26.6668 23.9999V26.6666H5.3335V23.9999C5.3335 21.0533 10.1068 18.6666 16.0002 18.6666Z" fill="black"/>
</svg>
